<?xml version="1.0" encoding="iso-8859-1"?>

<!DOCTYPE svg PUBLIC "-//W3C//DTD SVG 1.1//EN" "http://www.w3.org/Graphics/SVG/1.1/DTD/svg11.dtd">
<!-- Uploaded to: SVG Repo, www.svgrepo.com, Generator: SVG Repo Mixer Tools -->
<svg height="800px" width="800px" version="1.1" id="_x35_" xmlns="http://www.w3.org/2000/svg" xmlns:xlink="http://www.w3.org/1999/xlink" 
	 viewBox="0 0 512 512"  xml:space="preserve">
<g>
	<g>
		<path style="fill:#EEB248;" d="M512,255.964c0,141.117-114.846,255.964-256.037,255.964c-46.452,0-90.116-12.475-127.688-34.197
			c-38.967-22.529-71.549-55.111-94.078-94.078C12.475,346.079,0,302.416,0,255.964C0,114.773,114.845,0,255.963,0
			c59.148,0,113.673,20.107,157.042,53.864C429.81,67,445,82.117,458.063,98.922C491.893,142.292,512,196.816,512,255.964z"/>
		<path style="fill:#F8DAB2;" d="M255.993,472.906c-119.622,0-216.945-97.327-216.945-216.956
			c0-119.629,97.323-216.956,216.945-216.956c119.636,0,216.956,97.327,216.956,216.956
			C472.948,375.579,375.629,472.906,255.993,472.906z"/>
		<path style="fill:#FFFFFF;" d="M457.197,255.95c0,111.115-90.075,201.193-201.204,201.193
			c-111.109,0-201.183-90.078-201.183-201.193S144.884,54.756,255.993,54.756C367.122,54.756,457.197,144.834,457.197,255.95z"/>
		<g>
			<g>
				<path style="fill:#F1B674;" d="M151.492,369.409c-3.776,3.776-5.661,9.04-5.145,14.357c0.509,5.314,3.504,9.03,7.804,13.104
					c0,0,13.867,14.533,34.005,22.875c20.138,8.342,40.218,7.865,40.218,7.865c5.561,0.011,10.663-0.344,14.784-3.74
					c4.128-3.397,6.514-8.453,6.514-13.796l-0.007-128.053c0-1.81-1.082-3.437-2.752-4.128c-1.67-0.688-3.591-0.308-4.866,0.967
					L151.492,369.409z"/>
				<path style="fill:#F1B674;" d="M360.508,142.488c3.776-3.776,5.661-9.036,5.16-14.354c-0.523-5.314-3.511-9.03-7.819-13.104
					c0,0-13.859-14.537-33.997-22.875c-20.137-8.345-40.225-7.864-40.225-7.864c-5.561-0.011-10.663,0.343-14.785,3.74
					c-4.121,3.397-6.507,8.453-6.507,13.795v128.053c0,1.806,1.09,3.437,2.759,4.128c1.663,0.688,3.583,0.308,4.866-0.967
					L360.508,142.488z"/>
			</g>
			<g>
				<path style="fill:#F1B674;" d="M101.875,262.281c-5.346,0-10.398,2.383-13.792,6.508c-3.401,4.124-3.905,8.865-3.748,14.795
					c0,0-0.48,20.076,7.862,40.215c8.345,20.134,22.889,33.997,22.889,33.997c3.924,3.938,7.776,7.295,13.097,7.811
					c5.31,0.516,10.581-1.372,14.35-5.149l90.562-90.552c1.276-1.279,1.656-3.196,0.961-4.87c-0.688-1.666-2.314-2.756-4.128-2.756
					H101.875z"/>
				<path style="fill:#F1B674;" d="M410.128,249.619c5.339,0,10.405-2.39,13.788-6.508c3.397-4.132,3.913-8.865,3.748-14.795
					c0,0,0.48-20.076-7.862-40.214c-8.349-20.137-22.882-33.994-22.882-33.994c-3.92-3.941-7.783-7.303-13.108-7.815
					c-5.31-0.516-10.578,1.372-14.361,5.149l-90.541,90.551c-1.275,1.272-1.663,3.196-0.967,4.87
					c0.688,1.666,2.329,2.756,4.128,2.756H410.128z"/>
			</g>
			<g>
				<path style="fill:#F1B674;" d="M142.534,151.442c-3.769-3.78-9.04-5.665-14.35-5.149c-5.321,0.512-9.026,3.508-13.097,7.811
					c0,0-14.544,13.86-22.889,33.995c-8.342,20.141-7.862,40.217-7.862,40.217c0,5.565,0.347,10.663,3.748,14.795
					c3.393,4.118,8.446,6.508,13.792,6.508h128.053c1.813,0,3.44-1.09,4.128-2.759c0.695-1.67,0.316-3.594-0.967-4.866
					L142.534,151.442z"/>
				<path style="fill:#F1B674;" d="M369.451,360.458c3.784,3.773,9.051,5.664,14.361,5.149c5.325-0.516,9.037-3.508,13.108-7.815
					c0,0,14.533-13.86,22.882-33.997c8.342-20.134,7.862-40.211,7.862-40.211c0.007-5.565-0.351-10.671-3.748-14.795
					c-3.383-4.125-8.449-6.511-13.788-6.511l-128.057,0.004c-1.799,0-3.433,1.09-4.128,2.756c-0.696,1.67-0.316,3.591,0.967,4.87
					L369.451,360.458z"/>
			</g>
			<g>
				<path style="fill:#F1B674;" d="M249.665,101.822c0.007-5.339-2.38-10.395-6.507-13.796c-4.121-3.397-8.85-3.902-14.784-3.74
					c0,0-20.08-0.481-40.218,7.858c-20.137,8.345-34.005,22.886-34.005,22.886c-3.934,3.924-7.295,7.783-7.804,13.101
					c-0.517,5.321,1.369,10.581,5.145,14.358l90.555,90.544c1.275,1.283,3.196,1.659,4.866,0.971
					c1.669-0.688,2.752-2.322,2.752-4.124V101.822z"/>
				<path style="fill:#F1B674;" d="M262.335,410.074c0,5.342,2.386,10.399,6.507,13.796c4.121,3.393,8.865,3.906,14.785,3.74
					c0,0,20.088,0.477,40.225-7.865c20.138-8.342,33.997-22.875,33.997-22.875c3.942-3.931,7.296-7.79,7.819-13.108
					c0.501-5.314-1.383-10.578-5.16-14.354l-90.548-90.552c-1.283-1.272-3.203-1.659-4.866-0.967
					c-1.669,0.691-2.759,2.318-2.759,4.128V410.074z"/>
			</g>
		</g>
	</g>
	<path style="opacity:0.06;fill:#231815;" d="M512,255.964c0,141.117-114.846,255.964-256.037,255.964V0
		c59.148,0,113.673,20.107,157.042,53.864C429.81,67,445,82.117,458.063,98.922C491.893,142.292,512,196.816,512,255.964z"/>
</g>
</svg>